# xmcd
#
# Track frame offsets: 
#        151
#        14097
#        30122
#        49280
#        65917
#        83768
#        97307
#        115326
#        129700
#        143259
#        157384
#        173449
#        193216
#        206146
#        221747
#        237758
#        254049
#
# Disc length: 3586 seconds
#
# Revision: 0
# Processed by: cddbd v1.4PL0 Copyright (c) Steve Scherf et al.
# Submitted via: ExactAudioCopy v0.90b4
#
DISCID=050e0011
DTITLE=Alabama - Legendary Alabama - Disc 2
DYEAR=1900
DGENRE=Country
TTITLE0=As Right Now
TTITLE1=She And I
TTITLE2=You've Got The Touch
TTITLE3=Touch Me When We're Dancing
TTITLE4=Tar Top
TTITLE5=Face To Face
TTITLE6=Fallin' Again
TTITLE7=Song Of The South
TTITLE8=High Cotton
TTITLE9=Southern Star
TTITLE10=If I Had You
TTITLE11=I Showed Her
TTITLE12=Here We Are
TTITLE13=Down Home
TTITLE14=Forever's As Far As I'll Go
TTITLE15=Jukebox In My Mind
TTITLE16=Born Country
EXTD=
EXTT0=
EXTT1=
EXTT2=
EXTT3=
EXTT4=
EXTT5=
EXTT6=
EXTT7=
EXTT8=
EXTT9=
EXTT10=
EXTT11=
EXTT12=
EXTT13=
EXTT14=
EXTT15=
EXTT16=
PLAYORDER=
